<?xml version="1.0" encoding="UTF-8"?>
<!DOCTYPE svg PUBLIC "-//W3C//DTD SVG 1.1//EN" "http://www.w3.org/Graphics/SVG/1.1/DTD/svg11.dtd">
<svg xmlns="http://www.w3.org/2000/svg" version="1.1" width="1004px" height="980px" style="shape-rendering:geometricPrecision; text-rendering:geometricPrecision; image-rendering:optimizeQuality; fill-rule:evenodd; clip-rule:evenodd" xmlns:xlink="http://www.w3.org/1999/xlink">
<g><path style="opacity:1" fill="#000000" d="M 604.5,25.5 C 605.833,26.1667 605.833,26.1667 604.5,25.5 Z"/></g>
<g><path style="opacity:1" fill="#000000" d="M 614.5,27.5 C 615.833,28.1667 615.833,28.1667 614.5,27.5 Z"/></g>
<g><path style="opacity:1" fill="#d32a25" d="M 613.5,30.5 C 615.102,32.0739 617.102,32.7406 619.5,32.5C 623.326,32.7967 626.326,34.6301 628.5,38C 629.938,38.2189 631.271,38.7189 632.5,39.5C 701.528,108.194 770.194,177.194 838.5,246.5C 851.833,256.179 864.833,266.179 877.5,276.5C 888.373,287.817 898.373,299.817 907.5,312.5C 909.553,314.891 911.886,316.891 914.5,318.5C 914.238,319.978 914.571,321.311 915.5,322.5C 918.074,324.645 919.907,327.312 921,330.5C 921.816,331.823 922.983,332.489 924.5,332.5C 924.215,334.288 924.548,335.955 925.5,337.5C 930.662,344.837 934.995,352.504 938.5,360.5C 937.68,364.183 939.013,366.517 942.5,367.5C 943.403,371.755 945.403,375.422 948.5,378.5C 947.391,379.965 947.891,380.965 950,381.5C 951.48,388.77 953.647,395.77 956.5,402.5C 956.077,404.781 956.744,406.448 958.5,407.5C 959.517,410.797 960.85,413.797 962.5,416.5C 962.164,421.155 963.164,425.489 965.5,429.5C 965.167,430.167 964.833,430.833 964.5,431.5C 965.684,433.046 966.684,434.713 967.5,436.5C 970.49,451.027 972.323,465.694 973,480.5C 974.117,481.949 974.784,483.616 975,485.5C 975.667,502.833 975.667,520.167 975,537.5C 974.83,539.715 974.163,541.715 973,543.5C 972.566,554.554 971.566,565.554 970,576.5C 968.88,578.03 968.046,579.697 967.5,581.5C 967.285,584.144 967.285,586.477 967.5,588.5C 966.763,590.305 965.763,591.971 964.5,593.5C 964.833,594.167 965.167,594.833 965.5,595.5C 963.364,602.978 961.031,610.311 958.5,617.5C 956.692,618.918 956.025,620.918 956.5,623.5C 954.526,627.924 953.026,632.59 952,637.5C 949.673,641.649 947.173,645.649 944.5,649.5C 942.744,650.552 942.077,652.219 942.5,654.5C 942.5,655.833 942.5,657.167 942.5,658.5C 941.145,660.658 939.478,662.658 937.5,664.5C 935.06,671.486 931.393,677.653 926.5,683C 926.833,683.333 927.167,683.667 927.5,684C 922.076,691.219 916.576,698.385 911,705.5C 908.252,708.869 906.085,712.536 904.5,716.5C 902.396,717.759 900.396,719.259 898.5,721C 897.177,721.816 896.511,722.983 896.5,724.5C 886.211,733.788 876.211,743.454 866.5,753.5C 860.205,757.141 854.205,761.141 848.5,765.5C 845.328,768.805 841.994,771.805 838.5,774.5C 834.506,776.49 830.506,778.49 826.5,780.5C 824.973,780.427 823.973,781.094 823.5,782.5C 819.642,784.592 815.975,786.925 812.5,789.5C 810.801,789.34 809.134,789.506 807.5,790C 806.748,790.671 806.414,791.504 806.5,792.5C 802.514,793.927 798.514,795.427 794.5,797C 793.177,797.816 792.511,798.983 792.5,800.5C 780.475,803.399 768.809,807.066 757.5,811.5C 756.378,810.844 755.045,810.511 753.5,810.5C 751.667,810.585 750.334,811.252 749.5,812.5C 735.956,818.333 721.623,821 706.5,820.5C 694.452,819.855 682.785,820.522 671.5,822.5C 666.324,824.313 661.324,826.646 656.5,829.5C 651.205,833.488 645.872,837.488 640.5,841.5C 639.388,842.265 638.721,843.265 638.5,844.5C 634.588,845.459 631.254,847.459 628.5,850.5C 626.219,850.077 624.552,850.744 623.5,852.5C 619.018,856.514 614.352,860.514 609.5,864.5C 606.687,865.369 604.02,867.202 601.5,870C 595.341,873.251 589.675,877.251 584.5,882C 571.863,890.591 559.196,899.091 546.5,907.5C 544.389,908.605 543.055,910.271 542.5,912.5C 537.67,913.333 534.336,916 532.5,920.5C 530.801,920.34 529.134,920.506 527.5,921C 521.653,925.355 515.986,929.855 510.5,934.5C 501.343,939.863 492.343,945.696 483.5,952C 477.507,954.329 471.84,953.829 466.5,950.5C 465.329,949.655 463.995,948.989 462.5,948.5C 459.739,947.407 458.073,945.407 457.5,942.5C 457.027,941.094 456.027,940.427 454.5,940.5C 454.819,938.25 454.319,936.25 453,934.5C 452.5,890.835 452.333,847.168 452.5,803.5C 453.117,803.611 453.617,803.944 454,804.5C 454.333,847.167 454.667,889.833 455,932.5C 455.957,888.171 456.623,843.838 457,799.5C 457.837,801.007 459.004,801.507 460.5,801C 465.358,795.316 466.692,788.816 464.5,781.5C 459.526,783.06 454.526,784.727 449.5,786.5C 447.624,788.546 445.624,790.379 443.5,792C 444.308,792.308 444.975,792.808 445.5,793.5C 444,793.833 442.5,794.167 441,794.5C 416.181,795.457 391.348,795.79 366.5,795.5C 366.5,796.5 366.5,797.5 366.5,798.5C 351.185,796.945 335.851,795.279 320.5,793.5C 315.757,793.123 311.424,792.123 307.5,790.5C 305.365,788.631 302.698,787.964 299.5,788.5C 289.153,786.639 279.153,783.639 269.5,779.5C 268.833,779.833 268.167,780.167 267.5,780.5C 259.029,775.844 250.029,772.177 240.5,769.5C 233.265,765.643 225.931,761.977 218.5,758.5C 217.665,757.057 216.332,756.057 214.5,755.5C 211.316,753.89 207.983,752.89 204.5,752.5C 204.611,751.883 204.944,751.383 205.5,751C 195.359,744.688 185.359,738.188 175.5,731.5C 149.627,711.297 125.96,688.63 104.5,663.5C 95.6064,651.004 86.9398,638.671 78.5,626.5C 73.6816,617.362 69.3483,608.028 65.5,598.5C 65.2231,596.272 64.2231,594.605 62.5,593.5C 61.032,592.221 60.3653,590.554 60.5,588.5C 60.9227,586.219 60.256,584.552 58.5,583.5C 53.8684,577.779 51.2018,570.779 50.5,562.5C 50.9227,560.219 50.256,558.552 48.5,557.5C 47.9344,555.922 46.9344,554.588 45.5,553.5C 44.5344,551.604 44.2011,549.604 44.5,547.5C 45.0356,544.302 44.369,541.635 42.5,539.5C 42.1583,538.662 41.4916,538.328 40.5,538.5C 41.0356,535.302 40.369,532.635 38.5,530.5C 39.2283,525.367 38.0616,520.7 35,516.5C 34.9288,512.313 34.2622,508.313 33,504.5C 32.5012,500.514 32.3345,496.514 32.5,492.5C 33.12,486.074 32.4533,480.074 30.5,474.5C 29.0556,471.389 28.2223,468.056 28,464.5C 27.3333,448.833 27.3333,433.167 28,417.5C 29.7508,404.823 31.5841,392.156 33.5,379.5C 34.2621,378.372 34.9288,377.205 35.5,376C 33.7307,371.074 34.7307,366.74 38.5,363C 38.3552,362.228 38.0219,361.561 37.5,361C 40.6166,351.925 43.2832,342.758 45.5,333.5C 47.5499,332.923 48.5499,331.59 48.5,329.5C 51.5302,327.409 52.8635,324.409 52.5,320.5C 52.5,319.5 52.5,318.5 52.5,317.5C 53.5862,317.38 54.2528,316.713 54.5,315.5C 54.4573,314.584 54.1239,313.917 53.5,313.5C 55.1667,310.833 56.8333,308.167 58.5,305.5C 60.2132,304.365 60.8799,302.698 60.5,300.5C 61.2578,297.513 62.0911,294.513 63,291.5C 64.0113,290.663 65.1779,290.33 66.5,290.5C 66.4827,286.883 67.4827,283.55 69.5,280.5C 74.5693,270.563 80.5693,261.23 87.5,252.5C 88.4287,251.311 88.762,249.978 88.5,248.5C 89.7348,248.279 90.7348,247.612 91.5,246.5C 115.026,211.638 144.36,182.971 179.5,160.5C 181.221,129.688 191.221,102.022 209.5,77.5C 216.652,69.8477 223.985,62.3477 231.5,55C 237.348,50.5734 243.681,46.9068 250.5,44C 253.753,40.6627 257.753,38.8294 262.5,38.5C 264.698,38.8799 266.365,38.2132 267.5,36.5C 268.222,35.4489 269.222,34.7822 270.5,34.5C 272.781,34.9227 274.448,34.256 275.5,32.5C 278.97,31.0961 282.637,30.0961 286.5,29.5C 297.838,28.1659 309.171,26.8326 320.5,25.5C 412.47,25.3666 504.47,25.5332 596.5,26C 602.263,27.3899 607.93,28.8899 613.5,30.5 Z M 586.5,77.5 C 587.833,77.5 589.167,77.5 590.5,77.5C 591.261,78.3909 592.261,79.0576 593.5,79.5C 593.833,86.3333 594.167,93.1667 594.5,100C 593.841,127.158 593.841,154.325 594.5,181.5C 595.152,196.931 595.819,212.265 596.5,227.5C 597.32,232.802 598.987,237.802 601.5,242.5C 608.898,253.066 618.065,261.732 629,268.5C 634.454,270.769 639.954,272.769 645.5,274.5C 693.167,274.5 740.833,274.5 788.5,274.5C 788.783,275.289 789.283,275.956 790,276.5C 790.468,292.136 790.635,307.47 790.5,322.5C 790.5,412.833 790.5,503.167 790.5,593.5C 789.674,598.316 789.174,603.316 789,608.5C 788.586,608.957 788.086,609.291 787.5,609.5C 786.833,612.5 786.167,615.5 785.5,618.5C 784.833,619.167 784.167,619.833 783.5,620.5C 782.072,627.238 779.406,633.405 775.5,639C 775.833,639.333 776.167,639.667 776.5,640C 770.018,647.334 764.018,655.167 758.5,663.5C 750.105,670.447 741.272,676.781 732,682.5C 728.216,681.583 725.05,682.75 722.5,686C 716.256,688.394 709.923,690.228 703.5,691.5C 575.167,691.5 446.833,691.5 318.5,691.5C 314.75,689.854 310.75,688.854 306.5,688.5C 305.448,686.744 303.781,686.077 301.5,686.5C 299.866,685.793 298.532,684.627 297.5,683C 280.641,677.258 266.475,667.425 255,653.5C 251.425,646.433 247.258,639.766 242.5,633.5C 242.795,631.265 242.461,629.265 241.5,627.5C 239.439,625.673 238.106,623.34 237.5,620.5C 235.841,613.637 234.174,606.97 232.5,600.5C 232.5,599.833 232.167,599.5 231.5,599.5C 231.168,450.097 231.502,300.763 232.5,151.5C 232.5,150.833 232.5,150.167 232.5,149.5C 236.764,133.744 244.098,119.41 254.5,106.5C 260.771,99.723 267.771,93.8897 275.5,89C 281.406,86.5611 287.406,84.3945 293.5,82.5C 295.099,82.7678 296.432,82.4345 297.5,81.5C 303.996,79.84 310.662,78.84 317.5,78.5C 320.167,78.5 322.833,78.5 325.5,78.5C 327.5,78.5 329.5,78.5 331.5,78.5C 416.429,77.5029 501.429,77.1696 586.5,77.5 Z"/></g>
<g><path style="opacity:1" fill="#651c1b" d="M 613.5,30.5 C 616.082,30.0254 618.082,30.6921 619.5,32.5C 617.102,32.7406 615.102,32.0739 613.5,30.5 Z"/></g>
<g><path style="opacity:1" fill="#000000" d="M 626.5,32.5 C 627.525,32.8966 627.692,33.5632 627,34.5C 626.536,33.9056 626.369,33.2389 626.5,32.5 Z"/></g>
<g><path style="opacity:1" fill="#77201c" d="M 275.5,32.5 C 274.448,34.256 272.781,34.9227 270.5,34.5C 271.552,32.744 273.219,32.0773 275.5,32.5 Z"/></g>
<g><path style="opacity:1" fill="#000000" d="M 259.5,35.5 C 260.833,36.1667 260.833,36.1667 259.5,35.5 Z"/></g>
<g><path style="opacity:1" fill="#000000" d="M 628.5,35.5 C 629.833,36.1667 629.833,36.1667 628.5,35.5 Z"/></g>
<g><path style="opacity:1" fill="#000000" d="M 255.5,37.5 C 256.833,38.1667 256.833,38.1667 255.5,37.5 Z"/></g>
<g><path style="opacity:1" fill="#782423" d="M 267.5,36.5 C 266.365,38.2132 264.698,38.8799 262.5,38.5C 263.552,36.744 265.219,36.0773 267.5,36.5 Z"/></g>
<g><path style="opacity:1" fill="#000000" d="M 636.5,39.5 C 637.833,40.1667 637.833,40.1667 636.5,39.5 Z"/></g>
<g><path style="opacity:1" fill="#000000" d="M 237.5,47.5 C 238.833,48.1667 238.833,48.1667 237.5,47.5 Z"/></g>
<g><path style="opacity:1" fill="#000000" d="M 644.5,47.5 C 645.833,48.1667 645.833,48.1667 644.5,47.5 Z"/></g>
<g><path style="opacity:1" fill="#000000" d="M 235.5,49.5 C 236.833,50.1667 236.833,50.1667 235.5,49.5 Z"/></g>
<g><path style="opacity:1" fill="#000000" d="M 225.5,56.5 C 226.525,56.8966 226.692,57.5632 226,58.5C 225.536,57.9056 225.369,57.2389 225.5,56.5 Z"/></g>
<g><path style="opacity:1" fill="#000000" d="M 223.5,58.5 C 224.525,58.8966 224.692,59.5632 224,60.5C 223.536,59.9056 223.369,59.2389 223.5,58.5 Z"/></g>
<g><path style="opacity:1" fill="#000000" d="M 221.5,61.5 C 222.833,62.1667 222.833,62.1667 221.5,61.5 Z"/></g>
<g><path style="opacity:1" fill="#000000" d="M 217.5,64.5 C 218.525,64.8966 218.692,65.5632 218,66.5C 217.536,65.9056 217.369,65.2389 217.5,64.5 Z"/></g>
<g><path style="opacity:1" fill="#000000" d="M 215.5,66.5 C 216.773,67.0768 216.773,67.7435 215.5,68.5C 214.537,68.0302 214.537,67.3635 215.5,66.5 Z"/></g>
<g><path style="opacity:1" fill="#000000" d="M 207.5,74.5 C 208.525,74.8966 208.692,75.5632 208,76.5C 207.536,75.9056 207.369,75.2389 207.5,74.5 Z"/></g>
<g><path style="opacity:1" fill="#dd1c17" d="M 590.5,77.5 C 589.167,77.5 587.833,77.5 586.5,77.5C 544.168,76.8333 501.668,76.5 459,76.5C 416.161,76.5001 373.661,77.1667 331.5,78.5C 329.5,78.5 327.5,78.5 325.5,78.5C 323.365,76.631 320.698,75.9644 317.5,76.5C 317.414,75.5041 317.748,74.6708 318.5,74C 326.52,73.7372 334.52,73.2372 342.5,72.5C 416.909,73.576 491.242,73.576 565.5,72.5C 574.459,74.326 583.459,74.6593 592.5,73.5C 592.473,75.1993 591.806,76.5326 590.5,77.5 Z"/></g>
<g><path style="opacity:1" fill="#71100f" d="M 317.5,76.5 C 320.698,75.9644 323.365,76.631 325.5,78.5C 322.833,78.5 320.167,78.5 317.5,78.5C 317.5,77.8333 317.5,77.1667 317.5,76.5 Z"/></g>
<g><path style="opacity:1" fill="#991411" d="M 586.5,77.5 C 501.429,77.1696 416.429,77.5029 331.5,78.5C 373.661,77.1667 416.161,76.5001 459,76.5C 501.668,76.5 544.168,76.8333 586.5,77.5 Z"/></g>
<g><path style="opacity:1" fill="#000000" d="M 676.5,79.5 C 677.833,80.1667 677.833,80.1667 676.5,79.5 Z"/></g>
<g><path style="opacity:1" fill="#6c1b16" d="M 297.5,81.5 C 296.432,82.4345 295.099,82.7678 293.5,82.5C 293.62,81.4138 294.287,80.7472 295.5,80.5C 296.416,80.5427 297.083,80.8761 297.5,81.5 Z"/></g>
<g><path style="opacity:1" fill="#000000" d="M 684.5,87.5 C 685.833,88.1667 685.833,88.1667 684.5,87.5 Z"/></g>
<g><path style="opacity:1" fill="#000000" d="M 197.5,89.5 C 198.833,90.1667 198.833,90.1667 197.5,89.5 Z"/></g>
<g><path style="opacity:1" fill="#000000" d="M 716.5,119.5 C 717.833,120.167 717.833,120.167 716.5,119.5 Z"/></g>
<g><path style="opacity:1" fill="#000000" d="M 183.5,124.5 C 184.525,124.897 184.692,125.563 184,126.5C 183.536,125.906 183.369,125.239 183.5,124.5 Z"/></g>
<g><path style="opacity:1" fill="#000000" d="M 724.5,127.5 C 725.833,128.167 725.833,128.167 724.5,127.5 Z"/></g>
<g><path style="opacity:1" fill="#000000" d="M 764.5,167.5 C 765.833,168.167 765.833,168.167 764.5,167.5 Z"/></g>
<g><path style="opacity:1" fill="#000000" d="M 161.5,168.5 C 162.525,168.897 162.692,169.563 162,170.5C 161.536,169.906 161.369,169.239 161.5,168.5 Z"/></g>
<g><path style="opacity:1" fill="#000000" d="M 158.5,172.5 C 158.783,171.711 159.283,171.044 160,170.5C 160.528,171.816 160.028,172.483 158.5,172.5 Z"/></g>
<g><path style="opacity:1" fill="#000000" d="M 158.5,172.5 C 158.631,173.239 158.464,173.906 158,174.5C 157.308,173.563 157.475,172.897 158.5,172.5 Z"/></g>
<g><path style="opacity:1" fill="#000000" d="M 141.5,185.5 C 142.833,186.167 142.833,186.167 141.5,185.5 Z"/></g>
<g><path style="opacity:1" fill="#000000" d="M 782.5,185.5 C 783.833,186.167 783.833,186.167 782.5,185.5 Z"/></g>
<g><path style="opacity:1" fill="#000000" d="M 804.5,207.5 C 805.833,208.167 805.833,208.167 804.5,207.5 Z"/></g>
<g><path style="opacity:1" fill="#000000" d="M 806.5,209.5 C 807.833,210.167 807.833,210.167 806.5,209.5 Z"/></g>
<g><path style="opacity:1" fill="#940f0c" d="M 594.5,181.5 C 596.484,196.464 597.151,211.797 596.5,227.5C 595.819,212.265 595.152,196.931 594.5,181.5 Z"/></g>
<g><path style="opacity:1" fill="#000000" d="M 812.5,215.5 C 813.833,216.167 813.833,216.167 812.5,215.5 Z"/></g>
<g><path style="opacity:1" fill="#000000" d="M 814.5,217.5 C 815.833,218.167 815.833,218.167 814.5,217.5 Z"/></g>
<g><path style="opacity:1" fill="#000000" d="M 822.5,225.5 C 823.833,226.167 823.833,226.167 822.5,225.5 Z"/></g>
<g><path style="opacity:1" fill="#000000" d="M 97.5,232.5 C 98.525,232.897 98.6917,233.563 98,234.5C 97.5357,233.906 97.369,233.239 97.5,232.5 Z"/></g>
<g><path style="opacity:1" fill="#000000" d="M 830.5,233.5 C 831.833,234.167 831.833,234.167 830.5,233.5 Z"/></g>
<g><path style="opacity:1" fill="#000000" d="M 95.5,234.5 C 96.7733,235.077 96.7733,235.743 95.5,236.5C 94.537,236.03 94.537,235.363 95.5,234.5 Z"/></g>
<g><path style="opacity:1" fill="#000000" d="M 93.5,237.5 C 94.8333,238.167 94.8333,238.167 93.5,237.5 Z"/></g>
<g><path style="opacity:1" fill="#000000" d="M 840.5,245.5 C 841.833,246.167 841.833,246.167 840.5,245.5 Z"/></g>
<g><path style="opacity:1" fill="#000000" d="M 88.5,248.5 C 87.475,248.103 87.3083,247.437 88,246.5C 88.4643,247.094 88.631,247.761 88.5,248.5 Z"/></g>
<g><path style="opacity:1" fill="#000000" d="M 85.5,249.5 C 86.8333,250.167 86.8333,250.167 85.5,249.5 Z"/></g>
<g><path style="opacity:1" fill="#000000" d="M 83.5,251.5 C 84.8333,252.167 84.8333,252.167 83.5,251.5 Z"/></g>
<g><path style="opacity:1" fill="#000000" d="M 852.5,253.5 C 853.833,254.167 853.833,254.167 852.5,253.5 Z"/></g>
<g><path style="opacity:1" fill="#000000" d="M 79.5,258.5 C 80.525,258.897 80.6917,259.563 80,260.5C 79.5357,259.906 79.369,259.239 79.5,258.5 Z"/></g>
<g><path style="opacity:1" fill="#000000" d="M 860.5,259.5 C 861.833,260.167 861.833,260.167 860.5,259.5 Z"/></g>
<g><path style="opacity:1" fill="#000000" d="M 77.5,260.5 C 78.525,260.897 78.6917,261.563 78,262.5C 77.5357,261.906 77.369,261.239 77.5,260.5 Z"/></g>
<g><path style="opacity:1" fill="#000000" d="M 862.5,260.5 C 863.525,260.897 863.692,261.563 863,262.5C 862.536,261.906 862.369,261.239 862.5,260.5 Z"/></g>
<g><path style="opacity:1" fill="#000000" d="M 864.5,262.5 C 865.525,262.897 865.692,263.563 865,264.5C 864.536,263.906 864.369,263.239 864.5,262.5 Z"/></g>
<g><path style="opacity:1" fill="#000000" d="M 866.5,264.5 C 867.525,264.897 867.692,265.563 867,266.5C 866.536,265.906 866.369,265.239 866.5,264.5 Z"/></g>
<g><path style="opacity:1" fill="#000000" d="M 868.5,266.5 C 869.525,266.897 869.692,267.563 869,268.5C 868.536,267.906 868.369,267.239 868.5,266.5 Z"/></g>
<g><path style="opacity:1" fill="#ed0c0c" d="M 788.5,274.5 C 740.833,274.5 693.167,274.5 645.5,274.5C 646.952,273.698 648.618,273.198 650.5,273C 673.5,272.833 696.5,272.667 719.5,272.5C 742.843,272.5 765.843,273.167 788.5,274.5 Z"/></g>
<g><path style="opacity:1" fill="#000000" d="M 69.5,274.5 C 70.525,274.897 70.6917,275.563 70,276.5C 69.5357,275.906 69.369,275.239 69.5,274.5 Z"/></g>
<g><path style="opacity:1" fill="#000000" d="M 890.5,287.5 C 891.833,288.167 891.833,288.167 890.5,287.5 Z"/></g>
<g><path style="opacity:1" fill="#000000" d="M 892.5,289.5 C 893.833,290.167 893.833,290.167 892.5,289.5 Z"/></g>
<g><path style="opacity:1" fill="#db211b" d="M 232.5,149.5 C 232.5,150.167 232.5,150.833 232.5,151.5C 231.167,225.83 230.5,300.497 230.5,375.5C 230.5,450.334 230.833,525.001 231.5,599.5C 232.167,599.5 232.5,599.833 232.5,600.5C 231.312,601.684 230.145,601.684 229,600.5C 228.667,597.167 228.333,593.833 228,590.5C 227.333,447.167 227.333,303.833 228,160.5C 228.333,156.5 228.667,152.5 229,148.5C 229.71,147.027 230.876,146.36 232.5,146.5C 232.5,147.5 232.5,148.5 232.5,149.5 Z"/></g>
<g><path style="opacity:1" fill="#000000" d="M 898.5,296.5 C 899.525,296.897 899.692,297.563 899,298.5C 898.536,297.906 898.369,297.239 898.5,296.5 Z"/></g>
<g><path style="opacity:1" fill="#000000" d="M 900.5,298.5 C 901.525,298.897 901.692,299.563 901,300.5C 900.536,299.906 900.369,299.239 900.5,298.5 Z"/></g>
<g><path style="opacity:1" fill="#000000" d="M 902.5,300.5 C 903.525,300.897 903.692,301.563 903,302.5C 902.536,301.906 902.369,301.239 902.5,300.5 Z"/></g>
<g><path style="opacity:1" fill="#721f1f" d="M 60.5,300.5 C 60.8799,302.698 60.2132,304.365 58.5,305.5C 58.0773,303.219 58.744,301.552 60.5,300.5 Z"/></g>
<g><path style="opacity:1" fill="#000000" d="M 904.5,302.5 C 905.525,302.897 905.692,303.563 905,304.5C 904.536,303.906 904.369,303.239 904.5,302.5 Z"/></g>
<g><path style="opacity:1" fill="#000000" d="M 906.5,304.5 C 907.525,304.897 907.692,305.563 907,306.5C 906.536,305.906 906.369,305.239 906.5,304.5 Z"/></g>
<g><path style="opacity:1" fill="#782322" d="M 53.5,313.5 C 54.1239,313.917 54.4573,314.584 54.5,315.5C 54.2528,316.713 53.5862,317.38 52.5,317.5C 52.2322,315.901 52.5655,314.568 53.5,313.5 Z"/></g>
<g><path style="opacity:1" fill="#000000" d="M 914.5,318.5 C 914.369,317.761 914.536,317.094 915,316.5C 915.692,317.437 915.525,318.103 914.5,318.5 Z"/></g>
<g><path style="opacity:1" fill="#ae9076" d="M 358.5,317.5 C 357.081,318.451 355.415,318.784 353.5,318.5C 353.783,317.711 354.283,317.044 355,316.5C 356.011,317.337 357.178,317.67 358.5,317.5 Z"/></g>
<g><path style="opacity:1" fill="#862324" d="M 547.5,317.5 C 485.167,318.833 422.833,318.833 360.5,317.5C 422.834,316.193 485.167,316.193 547.5,317.5 Z"/></g>
<g><path style="opacity:1" fill="#dc4a45" d="M 358.5,317.5 C 359.167,317.5 359.833,317.5 360.5,317.5C 422.833,318.833 485.167,318.833 547.5,317.5C 560.167,317.5 572.833,317.5 585.5,317.5C 608.566,319.024 631.899,320.191 655.5,321C 554.5,321.667 453.5,321.667 352.5,321C 351.263,320.768 350.263,320.268 349.5,319.5C 350.568,318.566 351.901,318.232 353.5,318.5C 355.415,318.784 357.081,318.451 358.5,317.5 Z"/></g>
<g><path style="opacity:1" fill="#000000" d="M 47.5,322.5 C 48.7733,323.077 48.7733,323.743 47.5,324.5C 46.537,324.03 46.537,323.363 47.5,322.5 Z"/></g>
<g><path style="opacity:1" fill="#d42a25" d="M 585.5,317.5 C 616.434,318.159 647.434,318.826 678.5,319.5C 688.234,320.858 694.567,326.191 697.5,335.5C 699,342.661 698.5,349.661 696,356.5C 692.646,359.021 689.812,362.021 687.5,365.5C 683.202,367.338 678.868,368.005 674.5,367.5C 669.511,366.834 664.344,366.501 659,366.5C 653.454,366.505 648.288,367.172 643.5,368.5C 544.499,368.667 445.499,368.5 346.5,368C 339.085,364.677 333.419,359.51 329.5,352.5C 329.209,346.077 329.542,339.744 330.5,333.5C 332.15,329.658 334.483,326.158 337.5,323C 341.343,321.207 345.343,320.04 349.5,319.5C 350.263,320.268 351.263,320.768 352.5,321C 453.5,321.667 554.5,321.667 655.5,321C 631.899,320.191 608.566,319.024 585.5,317.5 Z"/></g>
<g><path style="opacity:1" fill="#7c2521" d="M 52.5,320.5 C 52.8635,324.409 51.5302,327.409 48.5,329.5C 48.9759,325.962 50.3093,322.962 52.5,320.5 Z"/></g>
<g><path style="opacity:1" fill="#000000" d="M 922.5,328.5 C 923.833,329.167 923.833,329.167 922.5,328.5 Z"/></g>
<g><path style="opacity:1" fill="#000000" d="M 924.5,332.5 C 924.369,331.761 924.536,331.094 925,330.5C 925.692,331.437 925.525,332.103 924.5,332.5 Z"/></g>
<g><path style="opacity:1" fill="#330e0a" d="M 330.5,333.5 C 329.542,339.744 329.209,346.077 329.5,352.5C 328.835,349.518 328.502,346.352 328.5,343C 328.515,339.424 329.182,336.258 330.5,333.5 Z"/></g>
<g><path style="opacity:1" fill="#000000" d="M 932.5,343.5 C 933.833,344.167 933.833,344.167 932.5,343.5 Z"/></g>
<g><path style="opacity:1" fill="#000000" d="M 37.5,353.5 C 38.8333,354.167 38.8333,354.167 37.5,353.5 Z"/></g>
<g><path style="opacity:1" fill="#000000" d="M 940.5,360.5 C 940.369,359.761 940.536,359.094 941,358.5C 941.692,359.437 941.525,360.103 940.5,360.5 Z"/></g>
<g><path style="opacity:1" fill="#000000" d="M 942.5,362.5 C 943.525,362.897 943.692,363.563 943,364.5C 942.536,363.906 942.369,363.239 942.5,362.5 Z"/></g>
<g><path style="opacity:1" fill="#691c19" d="M 938.5,360.5 C 939.167,360.5 939.833,360.5 940.5,360.5C 940.468,363.076 941.135,365.409 942.5,367.5C 939.013,366.517 937.68,364.183 938.5,360.5 Z"/></g>
<g><path style="opacity:1" fill="#9b1e1e" d="M 674.5,367.5 C 664.085,367.192 653.751,367.525 643.5,368.5C 648.288,367.172 653.454,366.505 659,366.5C 664.344,366.501 669.511,366.834 674.5,367.5 Z"/></g>
<g><path style="opacity:1" fill="#000000" d="M 946.5,372.5 C 947.525,372.897 947.692,373.563 947,374.5C 946.536,373.906 946.369,373.239 946.5,372.5 Z"/></g>
<g><path style="opacity:1" fill="#000000" d="M 950.5,378.5 C 951.525,378.897 951.692,379.563 951,380.5C 950.536,379.906 950.369,379.239 950.5,378.5 Z"/></g>
<g><path style="opacity:1" fill="#000000" d="M 29.5,390.5 C 30.525,390.897 30.6917,391.563 30,392.5C 29.5357,391.906 29.369,391.239 29.5,390.5 Z"/></g>
<g><path style="opacity:1" fill="#701614" d="M 956.5,402.5 C 958.256,403.552 958.923,405.219 958.5,407.5C 956.744,406.448 956.077,404.781 956.5,402.5 Z"/></g>
<g><path style="opacity:1" fill="#000000" d="M 960.5,407.5 C 961.833,408.167 961.833,408.167 960.5,407.5 Z"/></g>
<g><path style="opacity:1" fill="#000000" d="M 962.5,416.5 C 962.369,415.761 962.536,415.094 963,414.5C 963.692,415.437 963.525,416.103 962.5,416.5 Z"/></g>
<g><path style="opacity:1" fill="#000000" d="M 964.5,423.5 C 965.833,424.167 965.833,424.167 964.5,423.5 Z"/></g>
<g><path style="opacity:1" fill="#c6312e" d="M 349.5,432.5 C 404.163,433.833 459.163,434.5 514.5,434.5C 569.837,434.5 624.837,433.833 679.5,432.5C 681.361,433.842 683.361,434.842 685.5,435.5C 683.571,436.006 681.905,437.006 680.5,438.5C 679.614,437.675 679.281,436.675 679.5,435.5C 569.638,435.17 459.805,435.503 350,436.5C 348.69,435.87 347.856,434.87 347.5,433.5C 347.842,432.662 348.508,432.328 349.5,432.5 Z"/></g>
<g><path style="opacity:1" fill="#e91f1a" d="M 349.5,432.5 C 459.5,432.5 569.5,432.5 679.5,432.5C 624.837,433.833 569.837,434.5 514.5,434.5C 459.163,434.5 404.163,433.833 349.5,432.5 Z"/></g>
<g><path style="opacity:1" fill="#000000" d="M 335.5,436.5 C 336.773,437.077 336.773,437.743 335.5,438.5C 334.537,438.03 334.537,437.363 335.5,436.5 Z"/></g>
<g><path style="opacity:1" fill="#d32a25" d="M 347.5,433.5 C 347.856,434.87 348.69,435.87 350,436.5C 459.805,435.503 569.638,435.17 679.5,435.5C 679.281,436.675 679.614,437.675 680.5,438.5C 681.905,437.006 683.571,436.006 685.5,435.5C 697.035,442.676 701.035,453.009 697.5,466.5C 694.484,475.855 688.15,481.188 678.5,482.5C 669.672,481.605 660.672,480.938 651.5,480.5C 648.777,480.551 646.11,480.884 643.5,481.5C 636.35,479.638 629.183,479.305 622,480.5C 617.642,479.15 613.142,478.483 608.5,478.5C 579.676,478.579 550.676,478.746 521.5,479C 530.167,479.333 538.833,479.667 547.5,480C 526.269,480.333 505.269,479.833 484.5,478.5C 476.475,478.866 468.475,479.533 460.5,480.5C 450.248,479.424 439.915,479.424 429.5,480.5C 426.833,480.333 424.167,480.167 421.5,480C 426.774,479.187 426.774,478.687 421.5,478.5C 412.867,478.553 404.033,478.887 395,479.5C 390.878,479.542 386.878,478.876 383,477.5C 377.611,479.612 372.111,480.112 366.5,479C 367.167,479.333 367.833,479.667 368.5,480C 362.633,480.443 356.966,481.276 351.5,482.5C 347.795,482.279 344.461,481.779 341.5,481C 328.595,470.383 325.928,457.55 333.5,442.5C 336.194,440.473 338.527,438.139 340.5,435.5C 342.843,434.725 345.177,434.058 347.5,433.5 Z"/></g>
<g><path style="opacity:1" fill="#d21512" d="M 790.5,322.5 C 791.222,322.918 791.722,323.584 792,324.5C 792.333,323.833 792.667,323.167 793,322.5C 793.01,378.313 793.51,434.479 794.5,491C 793.837,525.1 793.17,559.267 792.5,593.5C 791.571,594.55 790.905,594.55 790.5,593.5C 790.5,503.167 790.5,412.833 790.5,322.5 Z"/></g>
<g><path style="opacity:1" fill="#9b231f" d="M 232.5,151.5 C 231.502,300.763 231.168,450.097 231.5,599.5C 230.833,525.001 230.5,450.334 230.5,375.5C 230.5,300.497 231.167,225.83 232.5,151.5 Z"/></g>
<g><path style="opacity:1" fill="#e12c2a" d="M 678.5,482.5 C 569.5,482.5 460.5,482.5 351.5,482.5C 356.966,481.276 362.633,480.443 368.5,480C 367.833,479.667 367.167,479.333 366.5,479C 372.111,480.112 377.611,479.612 383,477.5C 386.878,478.876 390.878,479.542 395,479.5C 404.033,478.887 412.867,478.553 421.5,478.5C 426.774,478.687 426.774,479.187 421.5,480C 424.167,480.167 426.833,480.333 429.5,480.5C 439.915,479.424 450.248,479.424 460.5,480.5C 468.475,479.533 476.475,478.866 484.5,478.5C 505.269,479.833 526.269,480.333 547.5,480C 538.833,479.667 530.167,479.333 521.5,479C 550.676,478.746 579.676,478.579 608.5,478.5C 613.142,478.483 617.642,479.15 622,480.5C 629.183,479.305 636.35,479.638 643.5,481.5C 646.11,480.884 648.777,480.551 651.5,480.5C 660.672,480.938 669.672,481.605 678.5,482.5 Z"/></g>
<g><path style="opacity:1" fill="#7c2220" d="M 30.5,474.5 C 32.4533,480.074 33.12,486.074 32.5,492.5C 30.5467,486.926 29.88,480.926 30.5,474.5 Z"/></g>
<g><path style="opacity:1" fill="#000000" d="M 31.5,506.5 C 32.8333,507.167 32.8333,507.167 31.5,506.5 Z"/></g>
<g><path style="opacity:1" fill="#000000" d="M 38.5,530.5 C 38.1034,531.525 37.4368,531.692 36.5,531C 37.0944,530.536 37.7611,530.369 38.5,530.5 Z"/></g>
<g><path style="opacity:1" fill="#000000" d="M 40.5,538.5 C 39.8333,539.167 39.8333,539.167 40.5,538.5 Z"/></g>
<g><path style="opacity:1" fill="#6b1d1b" d="M 42.5,539.5 C 44.369,541.635 45.0356,544.302 44.5,547.5C 43.8826,547.389 43.3826,547.056 43,546.5C 42.5034,544.19 42.3367,541.857 42.5,539.5 Z"/></g>
<g><path style="opacity:1" fill="#612c2a" d="M 529.5,544.5 C 531.183,544.619 532.85,544.952 534.5,545.5C 533.903,546.139 533.07,546.472 532,546.5C 530.624,546.316 529.791,545.649 529.5,544.5 Z"/></g>
<g><path style="opacity:1" fill="#000000" d="M 335.5,546.5 C 336.773,547.077 336.773,547.743 335.5,548.5C 334.537,548.03 334.537,547.363 335.5,546.5 Z"/></g>
<g><path style="opacity:1" fill="#d32a25" d="M 529.5,544.5 C 529.791,545.649 530.624,546.316 532,546.5C 533.07,546.472 533.903,546.139 534.5,545.5C 538.781,547.784 542.448,550.784 545.5,554.5C 545.34,556.199 545.506,557.866 546,559.5C 546.671,560.252 547.504,560.586 548.5,560.5C 548.829,566.537 548.496,572.537 547.5,578.5C 546.833,579.833 546.167,581.167 545.5,582.5C 541.399,587.576 536.399,591.409 530.5,594C 468.831,594.833 407.164,594.667 345.5,593.5C 338.393,589.945 333.06,584.612 329.5,577.5C 329.211,571.409 329.545,565.409 330.5,559.5C 333.561,553.077 338.228,548.077 344.5,544.5C 345.192,545.025 345.692,545.692 346,546.5C 346.772,545.151 347.939,544.318 349.5,544C 409.57,543.171 469.57,543.338 529.5,544.5 Z"/></g>
<g><path style="opacity:1" fill="#000000" d="M 41.5,548.5 C 42.8333,549.167 42.8333,549.167 41.5,548.5 Z"/></g>
<g><path style="opacity:1" fill="#000000" d="M 43.5,554.5 C 44.8333,555.167 44.8333,555.167 43.5,554.5 Z"/></g>
<g><path style="opacity:1" fill="#000000" d="M 45.5,556.5 C 46.8333,557.167 46.8333,557.167 45.5,556.5 Z"/></g>
<g><path style="opacity:1" fill="#2e0a07" d="M 545.5,554.5 C 546.201,556.588 547.201,558.588 548.5,560.5C 547.504,560.586 546.671,560.252 546,559.5C 545.506,557.866 545.34,556.199 545.5,554.5 Z"/></g>
<g><path style="opacity:1" fill="#82312f" d="M 48.5,557.5 C 50.256,558.552 50.9227,560.219 50.5,562.5C 49.8333,562.5 49.1667,562.5 48.5,562.5C 48.5,560.833 48.5,559.167 48.5,557.5 Z"/></g>
<g><path style="opacity:1" fill="#000000" d="M 48.5,562.5 C 48.1034,563.525 47.4368,563.692 46.5,563C 47.0944,562.536 47.7611,562.369 48.5,562.5 Z"/></g>
<g><path style="opacity:1" fill="#330f0d" d="M 330.5,559.5 C 329.545,565.409 329.211,571.409 329.5,577.5C 328.835,574.686 328.502,571.686 328.5,568.5C 328.517,565.087 329.184,562.087 330.5,559.5 Z"/></g>
<g><path style="opacity:1" fill="#000000" d="M 972.5,566.5 C 973.833,567.167 973.833,567.167 972.5,566.5 Z"/></g>
<g><path style="opacity:1" fill="#000000" d="M 51.5,576.5 C 52.8333,577.167 52.8333,577.167 51.5,576.5 Z"/></g>
<g><path style="opacity:1" fill="#000000" d="M 970.5,578.5 C 971.833,579.167 971.833,579.167 970.5,578.5 Z"/></g>
<g><path style="opacity:1" fill="#140b0a" d="M 967.5,581.5 C 968.833,583.833 968.833,586.167 967.5,588.5C 967.285,586.477 967.285,584.144 967.5,581.5 Z"/></g>
<g><path style="opacity:1" fill="#000000" d="M 55.5,582.5 C 56.8333,583.167 56.8333,583.167 55.5,582.5 Z"/></g>
<g><path style="opacity:1" fill="#762927" d="M 58.5,583.5 C 60.256,584.552 60.9227,586.219 60.5,588.5C 59.8333,588.5 59.1667,588.5 58.5,588.5C 58.5,586.833 58.5,585.167 58.5,583.5 Z"/></g>
<g><path style="opacity:1" fill="#000000" d="M 58.5,588.5 C 57.8333,589.167 57.8333,589.167 58.5,588.5 Z"/></g>
<g><path style="opacity:1" fill="#6c201b" d="M 62.5,593.5 C 64.2231,594.605 65.2231,596.272 65.5,598.5C 62.9162,597.952 61.9162,596.285 62.5,593.5 Z"/></g>
<g><path style="opacity:1" fill="#000000" d="M 61.5,598.5 C 62.8333,599.167 62.8333,599.167 61.5,598.5 Z"/></g>
<g><path style="opacity:1" fill="#000000" d="M 63.5,600.5 C 64.8333,601.167 64.8333,601.167 63.5,600.5 Z"/></g>
<g><path style="opacity:1" fill="#000000" d="M 964.5,602.5 C 965.833,603.167 965.833,603.167 964.5,602.5 Z"/></g>
<g><path style="opacity:1" fill="#000000" d="M 785.5,606.5 C 786.773,607.077 786.773,607.743 785.5,608.5C 784.537,608.03 784.537,607.363 785.5,606.5 Z"/></g>
<g><path style="opacity:1" fill="#000000" d="M 962.5,610.5 C 963.833,611.167 963.833,611.167 962.5,610.5 Z"/></g>
<g><path style="opacity:1" fill="#000000" d="M 69.5,614.5 C 70.8333,615.167 70.8333,615.167 69.5,614.5 Z"/></g>
<g><path style="opacity:1" fill="#5e1b15" d="M 958.5,617.5 C 958.946,620.01 958.28,622.01 956.5,623.5C 956.025,620.918 956.692,618.918 958.5,617.5 Z"/></g>
<g><path style="opacity:1" fill="#000000" d="M 78.5,626.5 C 77.8333,627.167 77.8333,627.167 78.5,626.5 Z"/></g>
<g><path style="opacity:1" fill="#000000" d="M 956.5,626.5 C 957.833,627.167 957.833,627.167 956.5,626.5 Z"/></g>
<g><path style="opacity:1" fill="#000000" d="M 79.5,630.5 C 80.8333,631.167 80.8333,631.167 79.5,630.5 Z"/></g>
<g><path style="opacity:1" fill="#6e2824" d="M 241.5,627.5 C 242.461,629.265 242.795,631.265 242.5,633.5C 240.271,631.901 239.938,629.901 241.5,627.5 Z"/></g>
<g><path style="opacity:1" fill="#000000" d="M 954.5,632.5 C 955.833,633.167 955.833,633.167 954.5,632.5 Z"/></g>
<g><path style="opacity:1" fill="#000000" d="M 83.5,638.5 C 84.8333,639.167 84.8333,639.167 83.5,638.5 Z"/></g>
<g><path style="opacity:1" fill="#000000" d="M 952.5,638.5 C 953.833,639.167 953.833,639.167 952.5,638.5 Z"/></g>
<g><path style="opacity:1" fill="#000000" d="M 85.5,640.5 C 86.8333,641.167 86.8333,641.167 85.5,640.5 Z"/></g>
<g><path style="opacity:1" fill="#000000" d="M 87.5,642.5 C 88.8333,643.167 88.8333,643.167 87.5,642.5 Z"/></g>
<g><path style="opacity:1" fill="#000000" d="M 89.5,646.5 C 90.8333,647.167 90.8333,647.167 89.5,646.5 Z"/></g>
<g><path style="opacity:1" fill="#000000" d="M 946.5,650.5 C 947.833,651.167 947.833,651.167 946.5,650.5 Z"/></g>
<g><path style="opacity:1" fill="#6f1616" d="M 944.5,649.5 C 944.5,651.167 944.5,652.833 944.5,654.5C 943.833,654.5 943.167,654.5 942.5,654.5C 942.077,652.219 942.744,650.552 944.5,649.5 Z"/></g>
<g><path style="opacity:1" fill="#000000" d="M 94.5,655.5 C 94.8966,654.475 95.5632,654.308 96.5,655C 95.9056,655.464 95.2389,655.631 94.5,655.5 Z"/></g>
<g><path style="opacity:1" fill="#000000" d="M 944.5,654.5 C 945.833,655.167 945.833,655.167 944.5,654.5 Z"/></g>
<g><path style="opacity:1" fill="#000000" d="M 96.5,657.5 C 96.8966,656.475 97.5632,656.308 98.5,657C 97.9056,657.464 97.2389,657.631 96.5,657.5 Z"/></g>
<g><path style="opacity:1" fill="#000000" d="M 942.5,658.5 C 943.833,659.167 943.833,659.167 942.5,658.5 Z"/></g>
<g><path style="opacity:1" fill="#000000" d="M 99.5,660.5 C 100.833,661.167 100.833,661.167 99.5,660.5 Z"/></g>
<g><path style="opacity:1" fill="#000000" d="M 940.5,664.5 C 941.833,665.167 941.833,665.167 940.5,664.5 Z"/></g>
<g><path style="opacity:1" fill="#000000" d="M 109.5,672.5 C 110.833,673.167 110.833,673.167 109.5,672.5 Z"/></g>
<g><path style="opacity:1" fill="#000000" d="M 111.5,674.5 C 112.833,675.167 112.833,675.167 111.5,674.5 Z"/></g>
<g><path style="opacity:1" fill="#000000" d="M 932.5,678.5 C 933.833,679.167 933.833,679.167 932.5,678.5 Z"/></g>
<g><path style="opacity:1" fill="#000000" d="M 115.5,680.5 C 116.833,681.167 116.833,681.167 115.5,680.5 Z"/></g>
<g><path style="opacity:1" fill="#000000" d="M 930.5,680.5 C 931.833,681.167 931.833,681.167 930.5,680.5 Z"/></g>
<g><path style="opacity:1" fill="#000000" d="M 117.5,682.5 C 118.833,683.167 118.833,683.167 117.5,682.5 Z"/></g>
<g><path style="opacity:1" fill="#772f2e" d="M 301.5,686.5 C 303.781,686.077 305.448,686.744 306.5,688.5C 304.219,688.923 302.552,688.256 301.5,686.5 Z"/></g>
<g><path style="opacity:1" fill="#000000" d="M 123.5,688.5 C 124.833,689.167 124.833,689.167 123.5,688.5 Z"/></g>
<g><path style="opacity:1" fill="#000000" d="M 926.5,688.5 C 927.833,689.167 927.833,689.167 926.5,688.5 Z"/></g>
<g><path style="opacity:1" fill="#000000" d="M 924.5,690.5 C 925.833,691.167 925.833,691.167 924.5,690.5 Z"/></g>
<g><path style="opacity:1" fill="#d44c4b" d="M 318.5,691.5 C 446.833,691.5 575.167,691.5 703.5,691.5C 702.432,692.434 701.099,692.768 699.5,692.5C 696.927,692.148 694.594,692.648 692.5,694C 570.167,694.667 447.833,694.667 325.5,694C 325.833,693.667 326.167,693.333 326.5,693C 324.527,692.505 322.527,692.338 320.5,692.5C 319.508,692.672 318.842,692.338 318.5,691.5 Z"/></g>
<g><path style="opacity:1" fill="#000000" d="M 129.5,694.5 C 130.833,695.167 130.833,695.167 129.5,694.5 Z"/></g>
<g><path style="opacity:1" fill="#000000" d="M 922.5,694.5 C 923.833,695.167 923.833,695.167 922.5,694.5 Z"/></g>
<g><path style="opacity:1" fill="#d53736" d="M 320.5,692.5 C 322.527,692.338 324.527,692.505 326.5,693C 326.167,693.333 325.833,693.667 325.5,694C 447.833,694.667 570.167,694.667 692.5,694C 694.594,692.648 696.927,692.148 699.5,692.5C 700.234,693.708 700.567,695.041 700.5,696.5C 573.985,696.487 447.319,696.487 320.5,696.5C 320.5,695.167 320.5,693.833 320.5,692.5 Z"/></g>
<g><path style="opacity:1" fill="#000000" d="M 131.5,696.5 C 132.833,697.167 132.833,697.167 131.5,696.5 Z"/></g>
<g><path style="opacity:1" fill="#000000" d="M 137.5,702.5 C 138.833,703.167 138.833,703.167 137.5,702.5 Z"/></g>
<g><path style="opacity:1" fill="#000000" d="M 139.5,704.5 C 140.833,705.167 140.833,705.167 139.5,704.5 Z"/></g>
<g><path style="opacity:1" fill="#000000" d="M 914.5,704.5 C 915.833,705.167 915.833,705.167 914.5,704.5 Z"/></g>
<g><path style="opacity:1" fill="#000000" d="M 141.5,706.5 C 142.833,707.167 142.833,707.167 141.5,706.5 Z"/></g>
<g><path style="opacity:1" fill="#000000" d="M 912.5,706.5 C 913.833,707.167 913.833,707.167 912.5,706.5 Z"/></g>
<g><path style="opacity:1" fill="#000000" d="M 147.5,712.5 C 148.833,713.167 148.833,713.167 147.5,712.5 Z"/></g>
<g><path style="opacity:1" fill="#000000" d="M 906.5,714.5 C 907.833,715.167 907.833,715.167 906.5,714.5 Z"/></g>
<g><path style="opacity:1" fill="#000000" d="M 904.5,716.5 C 905.833,717.167 905.833,717.167 904.5,716.5 Z"/></g>
<g><path style="opacity:1" fill="#000000" d="M 157.5,720.5 C 158.833,721.167 158.833,721.167 157.5,720.5 Z"/></g>
<g><path style="opacity:1" fill="#000000" d="M 896.5,724.5 C 897.833,725.167 897.833,725.167 896.5,724.5 Z"/></g>
<g><path style="opacity:1" fill="#000000" d="M 167.5,726.5 C 168.833,727.167 168.833,727.167 167.5,726.5 Z"/></g>
<g><path style="opacity:1" fill="#000000" d="M 169.5,728.5 C 170.833,729.167 170.833,729.167 169.5,728.5 Z"/></g>
<g><path style="opacity:1" fill="#000000" d="M 892.5,730.5 C 893.833,731.167 893.833,731.167 892.5,730.5 Z"/></g>
<g><path style="opacity:1" fill="#000000" d="M 173.5,732.5 C 174.833,733.167 174.833,733.167 173.5,732.5 Z"/></g>
<g><path style="opacity:1" fill="#000000" d="M 177.5,734.5 C 178.833,735.167 178.833,735.167 177.5,734.5 Z"/></g>
<g><path style="opacity:1" fill="#000000" d="M 886.5,736.5 C 887.833,737.167 887.833,737.167 886.5,736.5 Z"/></g>
<g><path style="opacity:1" fill="#000000" d="M 884.5,738.5 C 885.833,739.167 885.833,739.167 884.5,738.5 Z"/></g>
<g><path style="opacity:1" fill="#000000" d="M 187.5,742.5 C 188.833,743.167 188.833,743.167 187.5,742.5 Z"/></g>
<g><path style="opacity:1" fill="#000000" d="M 201.5,750.5 C 202.833,751.167 202.833,751.167 201.5,750.5 Z"/></g>
<g><path style="opacity:1" fill="#000000" d="M 204.5,752.5 C 203.833,753.167 203.833,753.167 204.5,752.5 Z"/></g>
<g><path style="opacity:1" fill="#000000" d="M 207.5,754.5 C 208.833,755.167 208.833,755.167 207.5,754.5 Z"/></g>
<g><path style="opacity:1" fill="#000000" d="M 218.5,758.5 C 217.833,759.167 217.833,759.167 218.5,758.5 Z"/></g>
<g><path style="opacity:1" fill="#000000" d="M 860.5,758.5 C 861.833,759.167 861.833,759.167 860.5,758.5 Z"/></g>
<g><path style="opacity:1" fill="#000000" d="M 858.5,760.5 C 859.833,761.167 859.833,761.167 858.5,760.5 Z"/></g>
<g><path style="opacity:1" fill="#000000" d="M 856.5,762.5 C 857.833,763.167 857.833,763.167 856.5,762.5 Z"/></g>
<g><path style="opacity:1" fill="#000000" d="M 854.5,764.5 C 855.833,765.167 855.833,765.167 854.5,764.5 Z"/></g>
<g><path style="opacity:1" fill="#000000" d="M 850.5,766.5 C 851.833,767.167 851.833,767.167 850.5,766.5 Z"/></g>
<g><path style="opacity:1" fill="#000000" d="M 848.5,768.5 C 849.833,769.167 849.833,769.167 848.5,768.5 Z"/></g>
<g><path style="opacity:1" fill="#000000" d="M 249.5,774.5 C 250.833,775.167 250.833,775.167 249.5,774.5 Z"/></g>
<g><path style="opacity:1" fill="#000000" d="M 838.5,774.5 C 839.833,775.167 839.833,775.167 838.5,774.5 Z"/></g>
<g><path style="opacity:1" fill="#000000" d="M 255.5,776.5 C 256.833,777.167 256.833,777.167 255.5,776.5 Z"/></g>
<g><path style="opacity:1" fill="#2e110f" d="M 826.5,780.5 C 826.5,781.167 826.5,781.833 826.5,782.5C 825.5,782.5 824.5,782.5 823.5,782.5C 823.973,781.094 824.973,780.427 826.5,780.5 Z"/></g>
<g><path style="opacity:1" fill="#000000" d="M 826.5,782.5 C 827.833,783.167 827.833,783.167 826.5,782.5 Z"/></g>
<g><path style="opacity:1" fill="#c2322e" d="M 452.5,803.5 C 452.5,802.5 452.5,801.5 452.5,800.5C 450.179,800.771 448.179,800.104 446.5,798.5C 433.655,799.815 420.655,800.481 407.5,800.5C 394.833,800.333 382.167,800.167 369.5,800C 368.756,798.961 367.756,798.461 366.5,798.5C 366.5,797.5 366.5,796.5 366.5,795.5C 391.348,795.79 416.181,795.457 441,794.5C 442.5,794.167 444,793.833 445.5,793.5C 444.975,792.808 444.308,792.308 443.5,792C 445.624,790.379 447.624,788.546 449.5,786.5C 454.526,784.727 459.526,783.06 464.5,781.5C 466.692,788.816 465.358,795.316 460.5,801C 459.004,801.507 457.837,801.007 457,799.5C 456.623,843.838 455.957,888.171 455,932.5C 454.667,889.833 454.333,847.167 454,804.5C 453.617,803.944 453.117,803.611 452.5,803.5 Z"/></g>
<g><path style="opacity:1" fill="#000000" d="M 822.5,784.5 C 823.833,785.167 823.833,785.167 822.5,784.5 Z"/></g>
<g><path style="opacity:1" fill="#000000" d="M 820.5,786.5 C 821.833,787.167 821.833,787.167 820.5,786.5 Z"/></g>
<g><path style="opacity:1" fill="#731211" d="M 299.5,788.5 C 302.698,787.964 305.365,788.631 307.5,790.5C 304.302,791.036 301.635,790.369 299.5,788.5 Z"/></g>
<g><path style="opacity:1" fill="#2c0c09" d="M 812.5,789.5 C 810.781,790.022 809.448,791.022 808.5,792.5C 807.833,792.5 807.167,792.5 806.5,792.5C 806.414,791.504 806.748,790.671 807.5,790C 809.134,789.506 810.801,789.34 812.5,789.5 Z"/></g>
<g><path style="opacity:1" fill="#000000" d="M 305.5,792.5 C 306.833,793.167 306.833,793.167 305.5,792.5 Z"/></g>
<g><path style="opacity:1" fill="#000000" d="M 808.5,792.5 C 809.239,792.369 809.906,792.536 810.5,793C 809.563,793.692 808.897,793.525 808.5,792.5 Z"/></g>
<g><path style="opacity:1" fill="#000000" d="M 792.5,800.5 C 793.833,801.167 793.833,801.167 792.5,800.5 Z"/></g>
<g><path style="opacity:1" fill="#751a17" d="M 757.5,811.5 C 755.052,812.473 752.385,812.806 749.5,812.5C 750.334,811.252 751.667,810.585 753.5,810.5C 755.045,810.511 756.378,810.844 757.5,811.5 Z"/></g>
<g><path style="opacity:1" fill="#000000" d="M 766.5,810.5 C 767.833,811.167 767.833,811.167 766.5,810.5 Z"/></g>
<g><path style="opacity:1" fill="#000000" d="M 758.5,812.5 C 759.833,813.167 759.833,813.167 758.5,812.5 Z"/></g>
<g><path style="opacity:1" fill="#000000" d="M 750.5,814.5 C 751.833,815.167 751.833,815.167 750.5,814.5 Z"/></g>
<g><path style="opacity:1" fill="#7a221e" d="M 706.5,820.5 C 695.215,822.478 683.548,823.145 671.5,822.5C 682.785,820.522 694.452,819.855 706.5,820.5 Z"/></g>
<g><path style="opacity:1" fill="#000000" d="M 708.5,822.5 C 709.833,823.167 709.833,823.167 708.5,822.5 Z"/></g>
<g><path style="opacity:1" fill="#000000" d="M 670.5,824.5 C 671.833,825.167 671.833,825.167 670.5,824.5 Z"/></g>
<g><path style="opacity:1" fill="#000000" d="M 662.5,828.5 C 663.833,829.167 663.833,829.167 662.5,828.5 Z"/></g>
<g><path style="opacity:1" fill="#000000" d="M 658.5,830.5 C 659.833,831.167 659.833,831.167 658.5,830.5 Z"/></g>
<g><path style="opacity:1" fill="#000000" d="M 656.5,832.5 C 657.833,833.167 657.833,833.167 656.5,832.5 Z"/></g>
<g><path style="opacity:1" fill="#000000" d="M 638.5,844.5 C 639.833,845.167 639.833,845.167 638.5,844.5 Z"/></g>
<g><path style="opacity:1" fill="#000000" d="M 636.5,846.5 C 637.833,847.167 637.833,847.167 636.5,846.5 Z"/></g>
<g><path style="opacity:1" fill="#651917" d="M 628.5,850.5 C 627.365,852.213 625.698,852.88 623.5,852.5C 624.552,850.744 626.219,850.077 628.5,850.5 Z"/></g>
<g><path style="opacity:1" fill="#000000" d="M 630.5,850.5 C 631.833,851.167 631.833,851.167 630.5,850.5 Z"/></g>
<g><path style="opacity:1" fill="#000000" d="M 628.5,852.5 C 629.833,853.167 629.833,853.167 628.5,852.5 Z"/></g>
<g><path style="opacity:1" fill="#000000" d="M 624.5,854.5 C 625.833,855.167 625.833,855.167 624.5,854.5 Z"/></g>
<g><path style="opacity:1" fill="#000000" d="M 622.5,856.5 C 623.833,857.167 623.833,857.167 622.5,856.5 Z"/></g>
<g><path style="opacity:1" fill="#000000" d="M 620.5,858.5 C 621.833,859.167 621.833,859.167 620.5,858.5 Z"/></g>
<g><path style="opacity:1" fill="#000000" d="M 614.5,862.5 C 615.833,863.167 615.833,863.167 614.5,862.5 Z"/></g>
<g><path style="opacity:1" fill="#000000" d="M 604.5,868.5 C 605.833,869.167 605.833,869.167 604.5,868.5 Z"/></g>
<g><path style="opacity:1" fill="#000000" d="M 602.5,870.5 C 603.833,871.167 603.833,871.167 602.5,870.5 Z"/></g>
<g><path style="opacity:1" fill="#000000" d="M 598.5,872.5 C 599.833,873.167 599.833,873.167 598.5,872.5 Z"/></g>
<g><path style="opacity:1" fill="#000000" d="M 590.5,878.5 C 591.833,879.167 591.833,879.167 590.5,878.5 Z"/></g>
<g><path style="opacity:1" fill="#000000" d="M 588.5,880.5 C 589.833,881.167 589.833,881.167 588.5,880.5 Z"/></g>
<g><path style="opacity:1" fill="#000000" d="M 586.5,882.5 C 587.833,883.167 587.833,883.167 586.5,882.5 Z"/></g>
<g><path style="opacity:1" fill="#000000" d="M 574.5,890.5 C 575.833,891.167 575.833,891.167 574.5,890.5 Z"/></g>
<g><path style="opacity:1" fill="#000000" d="M 570.5,892.5 C 571.833,893.167 571.833,893.167 570.5,892.5 Z"/></g>
<g><path style="opacity:1" fill="#000000" d="M 568.5,894.5 C 569.833,895.167 569.833,895.167 568.5,894.5 Z"/></g>
<g><path style="opacity:1" fill="#000000" d="M 560.5,900.5 C 561.833,901.167 561.833,901.167 560.5,900.5 Z"/></g>
<g><path style="opacity:1" fill="#000000" d="M 556.5,902.5 C 557.833,903.167 557.833,903.167 556.5,902.5 Z"/></g>
<g><path style="opacity:1" fill="#000000" d="M 554.5,904.5 C 555.833,905.167 555.833,905.167 554.5,904.5 Z"/></g>
<g><path style="opacity:1" fill="#000000" d="M 552.5,906.5 C 553.833,907.167 553.833,907.167 552.5,906.5 Z"/></g>
<g><path style="opacity:1" fill="#000000" d="M 544.5,910.5 C 545.833,911.167 545.833,911.167 544.5,910.5 Z"/></g>
<g><path style="opacity:1" fill="#000000" d="M 542.5,912.5 C 543.833,913.167 543.833,913.167 542.5,912.5 Z"/></g>
<g><path style="opacity:1" fill="#000000" d="M 534.5,918.5 C 535.833,919.167 535.833,919.167 534.5,918.5 Z"/></g>
<g><path style="opacity:1" fill="#000000" d="M 532.5,920.5 C 533.833,921.167 533.833,921.167 532.5,920.5 Z"/></g>
<g><path style="opacity:1" fill="#000000" d="M 528.5,922.5 C 529.833,923.167 529.833,923.167 528.5,922.5 Z"/></g>
<g><path style="opacity:1" fill="#000000" d="M 526.5,924.5 C 527.833,925.167 527.833,925.167 526.5,924.5 Z"/></g>
<g><path style="opacity:1" fill="#000000" d="M 522.5,926.5 C 523.833,927.167 523.833,927.167 522.5,926.5 Z"/></g>
<g><path style="opacity:1" fill="#000000" d="M 520.5,928.5 C 521.833,929.167 521.833,929.167 520.5,928.5 Z"/></g>
<g><path style="opacity:1" fill="#000000" d="M 518.5,930.5 C 519.833,931.167 519.833,931.167 518.5,930.5 Z"/></g>
<g><path style="opacity:1" fill="#000000" d="M 510.5,934.5 C 511.833,935.167 511.833,935.167 510.5,934.5 Z"/></g>
<g><path style="opacity:1" fill="#000000" d="M 508.5,938.5 C 509.833,939.167 509.833,939.167 508.5,938.5 Z"/></g>
<g><path style="opacity:1" fill="#3d1815" d="M 454.5,940.5 C 456.027,940.427 457.027,941.094 457.5,942.5C 455.973,942.573 454.973,941.906 454.5,940.5 Z"/></g>
<g><path style="opacity:1" fill="#000000" d="M 452.5,943.5 C 452.897,942.475 453.563,942.308 454.5,943C 453.906,943.464 453.239,943.631 452.5,943.5 Z"/></g>
<g><path style="opacity:1" fill="#000000" d="M 500.5,942.5 C 501.833,943.167 501.833,943.167 500.5,942.5 Z"/></g>
<g><path style="opacity:1" fill="#000000" d="M 455.5,944.5 C 456.833,945.167 456.833,945.167 455.5,944.5 Z"/></g>
<g><path style="opacity:1" fill="#000000" d="M 496.5,944.5 C 497.833,945.167 497.833,945.167 496.5,944.5 Z"/></g>
<g><path style="opacity:1" fill="#000000" d="M 494.5,946.5 C 495.833,947.167 495.833,947.167 494.5,946.5 Z"/></g>
<g><path style="opacity:1" fill="#000000" d="M 492.5,948.5 C 493.833,949.167 493.833,949.167 492.5,948.5 Z"/></g>
<g><path style="opacity:1" fill="#240705" d="M 462.5,948.5 C 463.995,948.989 465.329,949.655 466.5,950.5C 465.167,950.5 463.833,950.5 462.5,950.5C 462.5,949.833 462.5,949.167 462.5,948.5 Z"/></g>
<g><path style="opacity:1" fill="#000000" d="M 462.5,950.5 C 461.833,951.167 461.833,951.167 462.5,950.5 Z"/></g>
<g><path style="opacity:1" fill="#000000" d="M 465.5,952.5 C 466.833,953.167 466.833,953.167 465.5,952.5 Z"/></g>
</svg>
